<?xml version="1.0" standalone="no"?>
<!DOCTYPE svg PUBLIC "-//W3C//DTD SVG 20010904//EN"
 "http://www.w3.org/TR/2001/REC-SVG-20010904/DTD/svg10.dtd">
<svg version="1.0" xmlns="http://www.w3.org/2000/svg"
 width="2328.000000pt" height="2328.000000pt" viewBox="0 0 2328.000000 2328.000000"
 preserveAspectRatio="xMidYMid meet">
<metadata>
Created by potrace 1.14, written by Peter Selinger 2001-2017
</metadata>
<g transform="translate(0.000000,2328.000000) scale(0.100000,-0.100000)"
fill="#000000" stroke="none">
<path d="M15985 22623 c-11 -3 -36 -17 -55 -31 -33 -25 -322 -267 -384 -322
-99 -87 -203 -185 -297 -277 l-86 -85 -123 228 c-68 126 -133 238 -146 250
-34 35 -86 45 -142 29 -41 -13 -70 -37 -207 -176 -88 -89 -165 -166 -170 -173
-6 -6 -42 -45 -80 -86 -93 -101 -213 -237 -271 -308 -10 -13 -29 -36 -42 -50
-12 -15 -37 -46 -55 -69 -31 -41 -47 -53 -47 -35 0 8 -105 161 -129 189 -6 7
-11 15 -11 18 0 3 -17 29 -38 58 -21 29 -60 84 -87 122 -26 39 -65 87 -87 107
-35 33 -44 36 -86 34 -27 -1 -64 -11 -82 -22 -41 -24 -143 -151 -133 -167 3
-5 1 -7 -4 -4 -13 8 -203 -233 -349 -443 -129 -187 -314 -475 -368 -573 -6
-12 -27 -48 -46 -81 -72 -121 -90 -158 -84 -168 4 -6 3 -8 -3 -5 -6 4 -26 -24
-46 -61 -118 -221 -187 -364 -181 -374 4 -6 3 -8 -3 -5 -8 5 -73 -120 -73
-142 0 -4 -5 -12 -12 -19 -6 -6 -13 -17 -14 -24 -1 -7 -18 -47 -37 -88 -60
-130 -104 -230 -161 -375 -31 -77 -61 -149 -66 -160 -5 -11 -18 -47 -30 -80
-11 -33 -25 -69 -30 -80 -22 -46 -59 -168 -54 -176 3 -5 1 -9 -5 -9 -11 0 -63
-149 -55 -161 3 -5 1 -9 -5 -9 -12 0 -33 -69 -25 -82 3 -4 1 -8 -4 -8 -4 0
-21 -42 -36 -92 -16 -51 -38 -122 -49 -158 -11 -36 -20 -69 -18 -74 1 -4 -3
-14 -8 -20 -6 -7 -11 -27 -13 -44 -1 -18 -5 -32 -8 -32 -4 0 -11 -19 -17 -42
-6 -24 -31 -124 -57 -222 -26 -99 -44 -186 -41 -193 2 -8 1 -12 -4 -9 -8 5
-29 -81 -35 -140 -1 -11 -5 -24 -8 -30 -5 -9 -24 -87 -32 -134 -2 -14 -7 -32
-10 -40 -3 -8 -7 -31 -10 -51 -3 -20 -8 -42 -11 -50 -3 -8 -7 -33 -9 -55 -1
-22 -5 -45 -8 -50 -12 -20 -19 -65 -9 -60 5 4 4 -6 -4 -21 -7 -16 -16 -46 -18
-68 -3 -22 -8 -51 -10 -65 -3 -14 -9 -47 -13 -75 -4 -27 -9 -57 -10 -65 -2 -8
-6 -31 -9 -50 -8 -39 -13 -74 -21 -140 -8 -74 -12 -103 -17 -135 -11 -62 -21
-142 -31 -245 -4 -36 -9 -81 -11 -100 -11 -86 -31 -336 -40 -497 -13 -247 -15
-308 -17 -460 -2 -90 -5 -163 -7 -163 -3 0 -57 33 -120 72 -64 40 -119 72
-123 70 -5 -1 -8 2 -8 7 0 5 -9 13 -20 16 -11 3 -26 12 -33 18 -7 7 -24 19
-37 26 -14 8 -68 41 -121 73 -53 32 -101 58 -107 58 -6 0 -12 4 -14 8 -2 5
-41 31 -88 58 -47 27 -92 54 -102 59 -110 65 -175 100 -185 99 -7 -1 -11 1 -8
5 2 4 -24 22 -58 41 -34 18 -69 38 -77 44 -8 6 -33 20 -55 31 -22 10 -51 27
-65 36 -14 9 -59 34 -100 56 -165 89 -416 224 -430 233 -54 32 -852 435 -1025
517 -238 113 -345 163 -500 233 -33 15 -80 36 -105 48 -141 64 -198 89 -315
139 -71 31 -136 59 -145 63 -8 4 -26 12 -40 18 -14 6 -56 24 -95 40 -161 69
-326 137 -420 174 -55 22 -113 45 -130 53 -30 13 -67 27 -270 105 -60 23 -124
48 -142 56 -17 8 -34 14 -38 14 -4 0 -21 6 -38 14 -43 19 -110 41 -119 38 -5
-1 -8 2 -8 7 0 5 -17 13 -38 19 -42 12 -197 68 -227 82 -11 5 -40 16 -65 24
-25 8 -110 38 -190 66 -261 93 -730 249 -730 243 0 -3 -6 -1 -13 4 -10 8 -42
20 -77 27 -17 4 -279 89 -298 96 -16 7 -22 6 -22 -3 0 -6 -5 -4 -11 6 -5 9
-18 17 -27 17 -9 0 -35 7 -58 15 -58 20 -591 174 -689 199 -5 2 -17 5 -25 9
-26 9 -252 69 -274 72 -12 1 -28 5 -36 9 -15 6 -225 61 -370 96 -41 11 -93 23
-115 29 -22 5 -54 12 -72 16 -18 3 -45 10 -60 16 -40 16 -132 19 -162 6 -68
-29 -121 -127 -116 -212 2 -22 4 -73 5 -113 2 -40 7 -75 12 -78 4 -3 5 -11 1
-17 -4 -6 -7 -25 -6 -42 2 -76 15 -302 18 -321 2 -12 6 -61 9 -110 4 -49 9
-102 11 -119 3 -16 7 -59 10 -95 3 -36 8 -81 10 -100 3 -19 7 -55 10 -79 3
-23 7 -55 9 -70 3 -14 8 -48 11 -76 4 -27 8 -59 10 -70 1 -11 6 -42 9 -70 4
-27 9 -59 11 -70 5 -27 18 -117 18 -132 0 -7 3 -13 6 -13 3 0 7 -16 8 -35 1
-27 32 -196 47 -260 2 -5 7 -32 11 -60 5 -27 10 -52 10 -55 1 -3 5 -23 9 -45
4 -22 10 -47 13 -55 3 -8 7 -28 9 -44 2 -16 11 -54 19 -85 8 -31 17 -70 20
-88 3 -18 9 -43 14 -56 6 -14 7 -28 4 -31 -4 -3 -1 -6 6 -6 7 0 10 -4 7 -8 -2
-4 11 -68 30 -142 20 -74 37 -142 39 -151 5 -24 27 -102 33 -119 3 -8 7 -24 9
-34 2 -11 10 -40 19 -65 9 -25 18 -56 20 -69 3 -13 16 -57 29 -99 14 -42 25
-79 25 -84 0 -4 5 -20 11 -36 6 -15 10 -30 11 -33 0 -3 6 -21 14 -40 8 -19 15
-36 15 -37 -4 -19 1 -33 11 -27 6 4 8 3 4 -4 -3 -6 0 -29 8 -51 l13 -40 -31 4
c-29 3 -217 13 -416 20 -409 15 -626 19 -1081 19 l-525 1 -41 -27 c-46 -30
-74 -83 -81 -150 -3 -36 4 -75 31 -160 20 -62 59 -189 87 -283 223 -733 589
-1559 1022 -2308 44 -76 79 -140 77 -142 -4 -3 -210 -43 -319 -61 -25 -4 -47
-8 -50 -9 -3 -1 -25 -5 -50 -9 -25 -5 -52 -10 -60 -12 -32 -7 -317 -62 -345
-67 -16 -3 -60 -12 -98 -21 -37 -9 -82 -18 -100 -21 -17 -3 -153 -33 -302 -66
-148 -34 -281 -63 -295 -65 -90 -17 -150 -47 -181 -92 -20 -30 -24 -47 -24
-107 1 -71 2 -75 72 -196 39 -68 82 -144 95 -169 133 -242 414 -687 570 -905
499 -696 996 -1266 1634 -1875 202 -193 516 -472 719 -638 11 -10 45 -37 75
-62 30 -25 57 -47 60 -50 4 -5 75 -61 224 -177 22 -18 61 -47 86 -65 25 -17
47 -34 50 -37 3 -4 64 -50 135 -103 708 -523 1509 -1014 2250 -1377 177 -87
353 -171 359 -171 2 0 46 -20 97 -44 105 -49 312 -138 434 -186 44 -17 94 -38
110 -45 332 -145 1306 -453 1640 -519 11 -2 70 -16 130 -30 108 -24 396 -82
465 -92 19 -3 60 -9 90 -14 30 -5 71 -12 90 -15 19 -2 62 -9 95 -14 33 -5 64
-6 69 -3 10 5 3 -7 -25 -48 -9 -14 -68 -101 -130 -195 -61 -93 -121 -181 -131
-195 -10 -14 -66 -89 -123 -167 -256 -350 -479 -608 -815 -943 -244 -244 -347
-338 -590 -542 -439 -366 -1128 -842 -1357 -937 -18 -7 -30 -18 -26 -24 3 -5
1 -7 -5 -3 -6 3 -48 -11 -94 -33 -46 -21 -105 -49 -133 -61 -27 -12 -68 -31
-89 -41 -22 -11 -46 -19 -53 -19 -8 0 -11 -5 -7 -12 4 -6 3 -8 -4 -4 -11 6
-84 -23 -90 -37 -2 -4 -8 -5 -12 -2 -5 3 -17 1 -27 -4 -33 -18 -254 -104 -543
-210 -41 -16 -84 -32 -95 -36 -11 -4 -24 -9 -30 -11 -5 -2 -46 -16 -90 -32
-44 -16 -96 -35 -115 -42 -19 -7 -38 -16 -42 -19 -8 -7 113 -81 131 -81 5 0
11 -3 13 -7 9 -23 422 -198 439 -187 5 3 9 1 9 -4 0 -11 70 -33 82 -26 4 3 8
1 8 -4 0 -23 424 -121 595 -138 33 -3 63 -8 66 -9 15 -10 258 -20 454 -20 235
1 371 8 530 29 28 4 68 9 90 12 22 3 65 9 95 14 30 5 70 12 88 15 68 11 95 16
162 30 38 8 82 17 97 20 156 28 576 146 848 238 177 60 374 131 420 152 17 7
82 34 145 59 164 65 305 123 380 158 36 17 70 31 75 32 9 2 34 13 170 77 28
12 52 24 55 24 3 1 37 16 75 34 39 18 96 44 127 58 32 14 54 31 51 36 -3 6 -1
7 4 4 13 -8 83 20 83 33 0 5 7 7 15 4 8 -4 15 -1 15 7 0 7 3 10 6 7 3 -3 44
13 92 36 48 23 146 69 219 101 72 33 129 63 127 66 -2 4 5 5 16 2 11 -3 20 0
20 6 0 6 6 11 13 11 6 0 46 16 87 36 41 20 100 47 130 61 162 75 219 106 213
116 -4 6 -1 7 7 2 16 -10 251 105 243 118 -3 6 -1 7 6 3 11 -7 200 79 212 97
3 5 9 8 13 8 19 -3 27 0 22 7 -2 4 4 8 14 9 10 1 38 14 62 29 23 15 44 27 46
26 2 -2 163 78 304 151 26 13 44 27 41 31 -4 4 0 4 10 0 11 -4 17 -1 17 7 0 7
3 10 6 6 3 -3 20 2 37 12 18 10 70 37 117 62 47 24 88 48 92 54 4 5 8 7 8 3 0
-4 42 15 93 42 50 28 133 71 184 96 51 26 90 51 86 57 -3 6 -1 7 4 4 13 -8 86
21 79 31 -2 4 7 9 21 10 32 3 45 11 37 24 -4 6 -2 8 4 4 6 -3 37 7 68 24 32
16 64 30 71 30 7 0 13 3 13 8 0 4 25 18 55 32 30 14 55 29 55 33 0 5 4 6 9 2
5 -3 17 2 25 11 9 8 16 13 16 10 0 -4 21 5 48 18 26 13 88 43 137 66 709 329
1396 735 1995 1178 143 106 461 355 520 408 14 12 97 84 185 160 176 152 187
161 318 284 307 287 862 843 1071 1074 32 36 177 196 191 210 49 54 236 269
295 341 41 49 83 99 93 110 72 78 522 660 605 781 21 32 131 188 139 199 70
91 360 549 613 970 479 796 627 1002 960 1336 313 314 561 498 825 611 42 18
225 76 225 72 0 -3 8 0 18 5 11 6 30 12 43 15 13 2 56 11 94 20 39 9 86 18
105 21 19 2 46 6 59 9 13 3 49 8 80 12 31 4 70 8 86 11 129 16 456 16 550 0
17 -3 50 -9 75 -12 24 -4 47 -8 50 -10 3 -2 25 -6 50 -10 24 -4 51 -10 60 -15
8 -4 17 -8 20 -8 3 0 18 -5 33 -11 16 -6 32 -11 37 -11 12 0 94 -46 148 -82
49 -34 92 -75 92 -88 0 -6 5 -10 10 -10 6 0 10 -5 10 -11 0 -7 10 -20 21 -30
21 -18 22 -18 41 4 77 88 128 277 123 462 -4 186 -46 338 -135 490 -94 160
-258 316 -398 379 -35 16 -40 21 -31 37 19 36 52 155 70 254 25 138 20 388
-10 534 -26 122 -79 286 -127 389 -19 41 -34 75 -34 77 0 14 -135 236 -193
317 -424 593 -1094 1012 -1873 1173 -61 13 -133 26 -160 29 -27 4 -78 11 -114
16 -214 29 -569 31 -810 5 -43 -5 -80 -10 -162 -20 -21 -3 -75 -12 -120 -20
-119 -21 -141 -25 -158 -30 -8 -2 -30 -7 -49 -10 -69 -12 -351 -89 -491 -135
-139 -45 -373 -132 -388 -143 -23 -18 -22 -21 -37 223 -11 170 -13 201 -20
295 -4 50 -8 110 -10 135 -4 46 -14 163 -20 235 -2 22 -6 60 -9 85 -3 25 -8
75 -11 112 -3 37 -8 77 -10 90 -2 13 -6 55 -10 93 -3 39 -8 79 -10 90 -2 11
-7 47 -10 80 -9 92 -15 147 -20 180 -3 17 -16 116 -30 220 -14 105 -29 217
-35 250 -5 33 -12 78 -15 100 -3 22 -7 47 -10 55 -2 8 -6 38 -10 65 -6 49 -50
315 -60 365 -5 25 -8 38 -26 145 -19 111 -91 479 -113 581 -9 38 -18 80 -20
94 -25 147 -236 1014 -306 1260 -5 19 -37 131 -70 249 -229 805 -519 1643
-853 2462 -155 379 -224 530 -249 548 -39 28 -91 36 -143 24z m-1095 -3567 c0
-2 -8 -10 -17 -17 -16 -13 -17 -12 -4 4 13 16 21 21 21 13z m-3510 -2730 c0
-2 -8 -10 -17 -17 -16 -13 -17 -12 -4 4 13 16 21 21 21 13z m2880 -1600 c0 -2
-8 -10 -17 -17 -16 -13 -17 -12 -4 4 13 16 21 21 21 13z"/>
</g>
</svg>
